<svg viewBox="0 0 1024 1024" width="1024" height="1024" xmlns="http://www.w3.org/2000/svg">
  <defs>
    <clipPath id="clip">
      <rect x="0" y="0" width="1024" height="1024" rx="230" ry="230"/>
    </clipPath>
    <linearGradient id="bg" x1="0" y1="0" x2="0" y2="1">
      <stop offset="0%" stop-color="#36544a"/>
      <stop offset="55%" stop-color="#1f3a30"/>
      <stop offset="100%" stop-color="#0e1f19"/>
    </linearGradient>
    <radialGradient id="spot" cx="0.5" cy="0.35" r="0.6">
      <stop offset="0%" stop-color="#5a7f72" stop-opacity="0.55"/>
      <stop offset="100%" stop-color="#5a7f72" stop-opacity="0"/>
    </radialGradient>
    <linearGradient id="paper" x1="0" y1="0" x2="0" y2="1">
      <stop offset="0%" stop-color="#fbf5e6"/>
      <stop offset="100%" stop-color="#ece2c8"/>
    </linearGradient>
    <pattern id="noise" x="0" y="0" width="6" height="6" patternUnits="userSpaceOnUse">
      <rect width="6" height="6" fill="#fbf5e6"/>
      <circle cx="1" cy="2" r="0.4" fill="#b8a878" opacity="0.18"/>
      <circle cx="4" cy="5" r="0.3" fill="#b8a878" opacity="0.14"/>
    </pattern>
  </defs>

  <g clip-path="url(#clip)">
    <rect width="1024" height="1024" fill="url(#bg)"/>
    <rect width="1024" height="1024" fill="url(#spot)"/>
    <rect x="60" y="60" width="904" height="904" rx="190" ry="190" fill="none" stroke="#fff" stroke-width="2" opacity="0.06"/>

    <g transform="translate(512 530) rotate(-7)">
      <g transform="translate(18 22)" opacity="0.42">
        <path d="M -230 -340 L 230 -340 L 230 300 L 207 322 L 184 300 L 161 322 L 138 300 L 115 322 L 92 300 L 69 322 L 46 300 L 23 322 L 0 300 L -23 322 L -46 300 L -69 322 L -92 300 L -115 322 L -138 300 L -161 322 L -184 300 L -207 322 L -230 300 Z" fill="#000"/>
      </g>
      <path d="M -230 -340 L 230 -340 L 230 300 L 207 322 L 184 300 L 161 322 L 138 300 L 115 322 L 92 300 L 69 322 L 46 300 L 23 322 L 0 300 L -23 322 L -46 300 L -69 322 L -92 300 L -115 322 L -138 300 L -161 322 L -184 300 L -207 322 L -230 300 Z" fill="url(#paper)"/>
      <path d="M -230 -340 L 230 -340 L 230 300 L 207 322 L 184 300 L 161 322 L 138 300 L 115 322 L 92 300 L 69 322 L 46 300 L 23 322 L 0 300 L -23 322 L -46 300 L -69 322 L -92 300 L -115 322 L -138 300 L -161 322 L -184 300 L -207 322 L -230 300 Z" fill="url(#noise)" opacity="0.4"/>

      <rect x="-230" y="-340" width="460" height="96" fill="#15201c"/>
      <text x="0" y="-275" text-anchor="middle" font-family="Inter, system-ui, sans-serif" font-size="62" font-weight="800" fill="#fbf5e6" letter-spacing="8">RATTANA</text>
      <text x="0" y="-198" text-anchor="middle" font-family="Inter, system-ui, sans-serif" font-size="26" font-weight="600" fill="#15201c" letter-spacing="14" opacity="0.65">STATEMENT</text>
      <line x1="-185" y1="-160" x2="185" y2="-160" stroke="#15201c" stroke-width="3" opacity="0.4"/>

      <g>
        <rect x="-195" y="-110" width="240" height="14" rx="7" fill="#15201c" opacity="0.78"/>
        <rect x="115" y="-110" width="80" height="14" rx="7" fill="#15201c" opacity="0.55"/>
      </g>
      <g>
        <rect x="-195" y="-50" width="200" height="14" rx="7" fill="#15201c" opacity="0.78"/>
        <rect x="103" y="-50" width="92" height="14" rx="7" fill="#15201c" opacity="0.55"/>
      </g>
      <g>
        <rect x="-195" y="10" width="260" height="14" rx="7" fill="#15201c" opacity="0.78"/>
        <rect x="125" y="10" width="70" height="14" rx="7" fill="#15201c" opacity="0.55"/>
      </g>
      <g>
        <rect x="-195" y="70" width="180" height="14" rx="7" fill="#15201c" opacity="0.78"/>
        <rect x="95" y="70" width="100" height="14" rx="7" fill="#15201c" opacity="0.55"/>
      </g>
      <g>
        <rect x="-195" y="130" width="220" height="14" rx="7" fill="#15201c" opacity="0.78"/>
        <rect x="109" y="130" width="86" height="14" rx="7" fill="#15201c" opacity="0.55"/>
      </g>

      <line x1="-200" y1="186" x2="200" y2="186" stroke="#15201c" stroke-width="4"/>
      <text x="-195" y="245" font-family="Inter, system-ui, sans-serif" font-weight="900" font-size="56" fill="#15201c" letter-spacing="2">DUE</text>
      <text x="195" y="245" text-anchor="end" font-family="Inter, system-ui, sans-serif" font-weight="900" font-size="56" fill="#b03826">฿</text>

      <g transform="translate(155 -100)">
        <circle r="46" fill="none" stroke="#b03826" stroke-width="4" opacity="0.7"/>
        <circle r="38" fill="none" stroke="#b03826" stroke-width="2" opacity="0.45"/>
        <text y="14" text-anchor="middle" font-family="Playfair Display, Georgia, serif" font-style="italic" font-weight="800" font-size="44" fill="#b03826">R</text>
      </g>
    </g>
  </g>
</svg>
